<svg width="26" height="26" viewBox="0 0 26 26" fill="none" xmlns="http://www.w3.org/2000/svg">
<g id="icons8-dribbble 1">
<path id="Vector" d="M13 23.1375C18.5991 23.1375 23.1381 18.5985 23.1381 12.9994C23.1381 7.4003 18.5991 2.86133 13 2.86133C7.40091 2.86133 2.86194 7.4003 2.86194 12.9994C2.86194 18.5985 7.40091 23.1375 13 23.1375Z" fill="#ED3675"/>
<path id="Vector_2" fill-rule="evenodd" clip-rule="evenodd" d="M13 2.53418C7.22276 2.53418 2.53491 7.22203 2.53491 12.9993C2.53491 18.7766 7.22276 23.4644 13 23.4644C18.7663 23.4644 23.4651 18.7766 23.4651 12.9993C23.4651 7.22203 18.7663 2.53418 13 2.53418ZM19.9122 7.35808C21.1607 8.87918 21.91 10.8199 21.9325 12.9198C21.6374 12.8633 18.6863 12.2615 15.7126 12.6362C15.6446 12.4886 15.5875 12.3295 15.5195 12.171C15.3379 11.7398 15.1333 11.2971 14.9293 10.877C18.2211 9.53744 19.7197 7.60767 19.9122 7.35808ZM13 4.07778C15.2699 4.07778 17.3472 4.92912 18.9249 6.32517C18.7658 6.55226 17.4153 8.35697 14.237 9.54843C12.7729 6.85837 11.1498 4.65651 10.9002 4.31587C11.57 4.15732 12.2738 4.07778 13 4.07778ZM9.19753 4.91761C9.43561 5.23523 11.0247 7.4486 12.5118 10.0821C8.33468 11.1946 4.64573 11.1721 4.24858 11.1721C4.82782 8.40249 6.70055 6.09808 9.19753 4.91761ZM4.05602 13.0108C4.05602 12.9198 4.05602 12.8292 4.05602 12.7382C4.44218 12.7497 8.77788 12.8062 13.2386 11.4667C13.4997 11.9659 13.7378 12.4771 13.9649 12.9878C13.8514 13.0218 13.7263 13.0558 13.6133 13.0898C9.00497 14.5769 6.55352 18.64 6.34892 18.9806C4.92985 17.4035 4.05602 15.3032 4.05602 13.0108ZM13 21.9433C10.9342 21.9433 9.02747 21.2395 7.51788 20.0591C7.67695 19.7299 9.49265 16.2341 14.5326 14.4749C14.5551 14.4634 14.5667 14.4634 14.5897 14.4524C15.8497 17.7102 16.3604 20.4452 16.4964 21.2285C15.4175 21.6937 14.237 21.9433 13 21.9433ZM17.983 20.4112C17.8919 19.8665 17.4153 17.256 16.2463 14.0437C19.0499 13.601 21.5014 14.3273 21.808 14.4299C21.4224 16.9153 19.9918 19.0602 17.983 20.4112Z" fill="#BD1949"/>
</g>
</svg>
