<svg width="36" height="35" viewBox="0 0 36 35" fill="none" xmlns="http://www.w3.org/2000/svg">
<path id="Vector" d="M17.7467 0.0908203C8.19145 0.0908203 0.444336 7.83794 0.444336 17.3931C0.444336 25.5007 6.02722 32.2847 13.5537 34.162C13.473 33.9284 13.4211 33.6573 13.4211 33.3214V30.3641C12.7189 30.3641 11.5423 30.3641 11.2468 30.3641C10.063 30.3641 9.01043 29.8551 8.50001 28.9093C7.93336 27.8582 7.83531 26.2505 6.43094 25.2671C6.01424 24.9398 6.33145 24.5664 6.81159 24.6169C7.69834 24.8677 8.43368 25.4762 9.12578 26.3788C9.81499 27.2829 10.1394 27.4876 11.427 27.4876C12.0513 27.4876 12.9856 27.4516 13.8652 27.3131C14.3381 26.1121 15.1556 25.0062 16.1548 24.4842C10.3932 23.8916 7.64354 21.0252 7.64354 17.1336C7.64354 15.4582 8.35727 13.8375 9.56987 12.4721C9.17192 11.1167 8.67159 8.35268 9.72271 7.30012C12.3152 7.30012 13.8825 8.98133 14.2588 9.43552C15.5507 8.99287 16.9695 8.74198 18.4604 8.74198C19.9541 8.74198 21.3787 8.99287 22.6735 9.4384C23.0455 8.9871 24.6142 7.30012 27.2125 7.30012C28.2679 8.35412 27.7618 11.1297 27.3595 12.4822C28.5649 13.8447 29.2743 15.4611 29.2743 17.1336C29.2743 21.0223 26.529 23.8873 20.776 24.4828C22.3592 25.309 23.5141 27.6304 23.5141 29.3793V33.3214C23.5141 33.4713 23.4809 33.5795 23.4636 33.7078C30.2058 31.3446 35.049 24.9427 35.049 17.3931C35.049 7.83794 27.3019 0.0908203 17.7467 0.0908203Z" fill="white"/>
</svg>
