<svg width="30" height="30" viewBox="0 0 30 30" fill="none" xmlns="http://www.w3.org/2000/svg">
<g id="icons8-linkedin 1">
<path id="Vector" d="M25.8141 22.8106C25.8141 24.4699 24.4695 25.8144 22.8102 25.8144H7.19003C5.53129 25.8144 4.18616 24.4699 4.18616 22.8106V7.1904C4.18616 5.53106 5.53129 4.18652 7.19003 4.18652H22.8102C24.4695 4.18652 25.8141 5.53106 25.8141 7.1904V22.8106Z" fill="#0078D4"/>
<path id="Vector_2" opacity="0.05" d="M18.6048 22.8106V16.7434C18.6048 15.7286 18.1128 15.1225 17.2879 15.1225C16.7983 15.1225 16.4384 15.3982 16.2191 15.9419C16.2089 15.9804 16.1945 16.1372 16.2005 16.6112L16.2017 22.8106H11.9963V11.3959H16.2017V12.0333C16.8157 11.6097 17.5685 11.3959 18.4474 11.3959C21.1791 11.3959 22.8096 13.2541 22.8096 16.3667L22.8102 22.8106H18.6048ZM7.19006 22.8106V11.3959H9.26694C8.06359 11.3959 7.19006 10.5115 7.19006 9.29254C7.19006 8.07477 8.07801 7.19043 9.30119 7.19043C10.5099 7.19043 11.3709 8.05014 11.3955 9.28053C11.3955 10.5085 10.5069 11.3959 9.28376 11.3959H11.3955V22.8106H7.19006Z" fill="black"/>
<path id="Vector_3" opacity="0.07" d="M18.9052 22.5106V16.7438C18.9052 15.5584 18.2858 14.8225 17.2879 14.8225C16.5099 14.8225 16.1254 15.3704 15.9404 15.83C15.8911 15.9495 15.8977 16.4241 15.9001 16.6266L15.9013 22.5106H12.2967V11.6966H15.9013V12.6807C16.3789 12.1863 17.1479 11.6966 18.4474 11.6966C20.9905 11.6966 22.5093 13.4425 22.5093 16.3671L22.5099 22.5106H18.9052ZM7.49048 22.5106V11.6966H11.0951V22.5106H7.49048ZM9.26697 11.0959C8.23784 11.0959 7.49048 10.3377 7.49048 9.29294C7.49048 8.24879 8.25226 7.49121 9.30122 7.49121C10.337 7.49121 11.0741 8.22956 11.0951 9.28693C11.0951 10.3377 10.3333 11.0959 9.28379 11.0959H9.26697Z" fill="black"/>
<path id="Vector_4" d="M7.79089 11.9964H10.7948V22.2096H7.79089V11.9964ZM9.28382 10.7949H9.267C8.37064 10.7949 7.79089 10.1268 7.79089 9.29235C7.79089 8.43985 8.38866 7.79102 9.30124 7.79102C10.215 7.79102 10.7779 8.43985 10.7948 9.29235C10.7948 10.1262 10.215 10.7949 9.28382 10.7949ZM22.2095 22.2096H19.2056V16.7432C19.2056 15.4227 18.4697 14.5215 17.2879 14.5215C16.3862 14.5215 15.8984 15.1295 15.6616 15.717C15.5751 15.9273 15.601 16.5089 15.601 16.8026V22.2096H12.5971V11.9964H15.601V13.5681C16.0341 12.8976 16.7124 11.9964 18.4474 11.9964C20.597 11.9964 22.2089 13.3482 22.2089 16.3665L22.2095 22.2096Z" fill="white"/>
</g>
</svg>
