<svg width="65" height="41" viewBox="0 0 65 41" fill="none" xmlns="http://www.w3.org/2000/svg">
<path d="M1.84 32.48C1.04 32.0533 0.533333 31.6133 0.32 31.16C0.106667 30.7067 0 30.32 0 30C0 29.28 0.253333 28.32 0.76 27.12C1.29333 25.8933 2 24.4933 2.88 22.92C3.76 21.3467 4.76 19.7067 5.88 18C5.05333 17.9467 4.26667 17.9067 3.52 17.88C2.77333 17.8533 1.81333 17.84 0.64 17.84H0C0.373333 16.88 0.96 16.2133 1.76 15.84C2.58667 15.44 3.54667 15.24 4.64 15.24C5.09333 15.24 5.56 15.2667 6.04 15.32C6.54667 15.3733 7.06667 15.4267 7.6 15.48C8.93333 13.56 10.24 11.7467 11.52 10.04C12.8267 8.33333 14.0533 6.8 15.2 5.44C16.3733 4.05333 17.4133 2.92 18.32 2.04C19.6 0.759998 20.5333 0.119998 21.12 0.119998C21.4933 0.119998 21.9067 0.266665 22.36 0.559999C22.84 0.853332 23.3333 1.22667 23.84 1.68C23.5733 1.89333 23.2267 2.44 22.8 3.32C22.4 4.2 21.96 5.32 21.48 6.68C21.0267 8.01333 20.56 9.48 20.08 11.08C19.6267 12.68 19.2133 14.3067 18.84 15.96C18.4667 17.6133 18.16 19.2 17.92 20.72C17.7067 22.2133 17.6 23.5333 17.6 24.68C17.6 25.7467 17.7067 26.5467 17.92 27.08C18.1333 27.5867 18.4933 27.84 19 27.84C19.6133 27.84 20.3733 27.3733 21.28 26.44C22.1867 25.5067 23.2 23.9867 24.32 21.88L25.04 22.64C24.2133 24.8267 23.1333 26.6267 21.8 28.04C20.4933 29.4533 19.0933 30.16 17.6 30.16C16.32 30.16 15.4133 29.6133 14.88 28.52C14.3467 27.4 14.08 25.88 14.08 23.96C14.08 23.3467 14.12 22.6533 14.2 21.88C14.28 21.1067 14.4133 20.1467 14.6 19C13.4267 18.8133 12.3867 18.6667 11.48 18.56C10.5733 18.4533 9.70667 18.3467 8.88 18.24C7.6 20.5067 6.36 22.8533 5.16 25.28C3.96 27.7067 2.85333 30.1067 1.84 32.48ZM15 17.04C15.3467 15.4667 15.7467 13.88 16.2 12.28C16.68 10.6533 17.1733 9.10667 17.68 7.64C18.2133 6.14667 18.7333 4.81333 19.24 3.64C18.44 4.28 17.5467 5.2 16.56 6.4C15.5733 7.6 14.5333 9.01333 13.44 10.64C12.3733 12.2667 11.28 14.04 10.16 15.96C10.96 16.12 11.76 16.2933 12.56 16.48C13.36 16.6667 14.1733 16.8533 15 17.04ZM25.1231 40.2C24.4565 40.2 23.8298 39.9867 23.2431 39.56C22.6831 39.16 22.4031 38.5067 22.4031 37.6C22.4031 36.7467 22.6565 35.9733 23.1631 35.28C23.6698 34.6133 24.3231 33.9867 25.1231 33.4C25.9231 32.84 26.7765 32.32 27.6831 31.84C28.6165 31.3867 29.5098 30.96 30.3631 30.56C30.6565 29.7867 30.9765 28.8133 31.3231 27.64C31.6965 26.44 32.0165 25.3333 32.2831 24.32C31.4565 25.4667 30.5765 26.48 29.6431 27.36C28.7098 28.24 27.6698 28.68 26.5231 28.68C26.0431 28.68 25.5365 28.5867 25.0031 28.4C24.4698 28.1867 24.0165 27.84 23.6431 27.36C23.2965 26.8533 23.1231 26.1867 23.1231 25.36C23.1231 24.6667 23.2431 23.8267 23.4831 22.84C23.7498 21.8533 24.0698 20.8933 24.4431 19.96C24.8431 19 25.2565 18.2133 25.6831 17.6C26.1098 16.96 26.4831 16.64 26.8031 16.64C26.9631 16.64 27.1898 16.7067 27.4831 16.84C27.8031 16.9467 28.1098 17.1067 28.4031 17.32C28.6965 17.5067 28.8831 17.72 28.9631 17.96C28.7231 18.28 28.4565 18.7467 28.1631 19.36C27.8698 19.9467 27.5898 20.6133 27.3231 21.36C27.0565 22.08 26.8298 22.7867 26.6431 23.48C26.4831 24.1733 26.4031 24.7733 26.4031 25.28C26.4031 25.68 26.4831 26.0267 26.6431 26.32C26.8031 26.6133 27.1098 26.76 27.5631 26.76C28.1498 26.76 28.7498 26.52 29.3631 26.04C30.0031 25.56 30.6165 24.9467 31.2031 24.2C31.8165 23.4533 32.3631 22.6933 32.8431 21.92C32.8965 21.7333 32.9498 21.44 33.0031 21.04C33.0565 20.64 33.1498 20.2267 33.2831 19.8C33.4165 19.3467 33.6431 18.9333 33.9631 18.56C34.3098 18.1867 34.7898 18 35.4031 18C35.6165 18 35.8165 18.0133 36.0031 18.04C36.1898 18.0667 36.4165 18.1067 36.6831 18.16C36.6831 18.56 36.5365 19.3467 36.2431 20.52C35.9765 21.6667 35.6165 23 35.1631 24.52C34.7098 26.04 34.2031 27.56 33.6431 29.08C34.7631 28.6267 35.9231 27.88 37.1231 26.84C38.3498 25.7733 39.3365 24.2667 40.0831 22.32L40.7631 22.88C40.3631 24.2133 39.7498 25.3733 38.9231 26.36C38.1231 27.3467 37.2165 28.1867 36.2031 28.88C35.1898 29.5733 34.1631 30.1467 33.1231 30.6C32.4031 32.3333 31.6165 33.9333 30.7631 35.4C29.9365 36.8667 29.0565 38.0267 28.1231 38.88C27.1898 39.76 26.1898 40.2 25.1231 40.2ZM24.7231 38.72C25.2298 38.72 25.9365 38.1867 26.8431 37.12C27.7498 36.0533 28.6698 34.4533 29.6031 32.32C28.7498 32.7467 27.8831 33.24 27.0031 33.8C26.1498 34.3867 25.4298 35 24.8431 35.64C24.2565 36.28 23.9631 36.9333 23.9631 37.6C23.9631 37.8667 24.0165 38.12 24.1231 38.36C24.2565 38.6 24.4565 38.72 24.7231 38.72Z" fill="white"/>
<path d="M48.8988 32.48C47.3521 32.48 45.9388 32.0667 44.6588 31.24C43.3788 30.44 42.3654 29.2933 41.6188 27.8C40.8721 26.3067 40.4988 24.52 40.4988 22.44C40.4988 20.3867 40.8188 18.32 41.4588 16.24C42.0988 14.1333 42.9788 12.1333 44.0988 10.24C45.2188 8.32 46.5254 6.61333 48.0188 5.12C49.5121 3.6 51.0988 2.41333 52.7788 1.56C54.4854 0.679998 56.2321 0.239998 58.0188 0.239998C58.2854 0.239998 58.6721 0.293332 59.1788 0.399999C59.7121 0.506666 60.2321 0.826665 60.7388 1.36C60.5788 1.33333 60.3921 1.32 60.1788 1.32C59.9921 1.29333 59.7921 1.28 59.5788 1.28C58.1921 1.28 56.7921 1.72 55.3788 2.6C53.9654 3.45333 52.6188 4.61333 51.3388 6.08C50.0588 7.54667 48.9121 9.21333 47.8988 11.08C46.9121 12.92 46.1254 14.84 45.5388 16.84C44.9521 18.84 44.6588 20.7867 44.6588 22.68C44.6588 24.0667 44.8454 25.36 45.2188 26.56C45.5921 27.76 46.1921 28.72 47.0188 29.44C47.8454 30.1867 48.9388 30.56 50.2988 30.56C51.7654 30.56 53.1388 30.12 54.4188 29.24C55.6988 28.36 56.8588 27.1867 57.8988 25.72C58.9388 24.2267 59.8321 22.5733 60.5788 20.76C61.3254 18.92 61.8988 17.04 62.2988 15.12C62.6988 13.1733 62.8988 11.32 62.8988 9.56C62.8988 8.78667 62.8454 7.96 62.7387 7.08C62.6321 6.17333 62.4454 5.4 62.1788 4.76C61.9387 4.12 61.5788 3.8 61.0988 3.8C60.6454 3.8 60.1521 4.09333 59.6188 4.68C59.0854 5.24 58.5654 5.96 58.0588 6.84C57.5521 7.72 57.0988 8.65333 56.6988 9.64C56.3254 10.6 56.0588 11.4667 55.8988 12.24C54.9921 12.0533 54.3388 11.76 53.9388 11.36C53.5654 10.96 53.3788 10.48 53.3788 9.92C53.3788 9.2 53.6321 8.4 54.1388 7.52C54.6454 6.64 55.2988 5.8 56.0988 5C56.9254 4.17333 57.7788 3.49333 58.6588 2.96C59.5654 2.42667 60.4054 2.16 61.1788 2.16C61.9788 2.16 62.6188 2.45333 63.0988 3.04C63.6054 3.6 63.9921 4.33333 64.2588 5.24C64.5254 6.14667 64.7121 7.12 64.8188 8.16C64.9254 9.17333 64.9788 10.12 64.9788 11C64.9788 13.72 64.6454 16.2133 63.9788 18.48C63.3121 20.72 62.4054 22.7067 61.2587 24.44C60.1388 26.1733 58.8721 27.64 57.4588 28.84C56.0721 30.04 54.6321 30.9467 53.1388 31.56C51.6721 32.1733 50.2588 32.48 48.8988 32.48Z" fill="#FE5000"/>
</svg>
