<svg width="17" height="12" viewBox="0 0 17 12" fill="none" xmlns="http://www.w3.org/2000/svg">
<g opacity="0.5">
<mask id="path-1-outside-1_338_79" maskUnits="userSpaceOnUse" x="-2" y="-1" width="20" height="14" fill="black">
<rect fill="white" x="-2" y="-1" width="20" height="14"/>
<path d="M5.30293 11.5H0.20293L5.00293 0.149999H8.25293L5.30293 11.5ZM13.4029 11.5H8.30293L13.1029 0.149999H16.3529L13.4029 11.5Z"/>
</mask>
<path d="M5.30293 11.5V12.5H6.07624L6.27077 11.7516L5.30293 11.5ZM0.20293 11.5L-0.718094 11.1105L-1.30573 12.5H0.20293V11.5ZM5.00293 0.149998V-0.850002H4.34009L4.08191 -0.23951L5.00293 0.149998ZM8.25293 0.149998L9.22077 0.401552L9.54607 -0.850002H8.25293V0.149998ZM13.4029 11.5V12.5H14.1762L14.3708 11.7516L13.4029 11.5ZM8.30293 11.5L7.38191 11.1105L6.79427 12.5H8.30293V11.5ZM13.1029 0.149998V-0.850002H12.4401L12.1819 -0.23951L13.1029 0.149998ZM16.3529 0.149998L17.3208 0.401552L17.6461 -0.850002H16.3529V0.149998ZM5.30293 10.5H0.20293V12.5H5.30293V10.5ZM1.12395 11.8895L5.92395 0.539507L4.08191 -0.23951L-0.718094 11.1105L1.12395 11.8895ZM5.00293 1.15H8.25293V-0.850002H5.00293V1.15ZM7.28509 -0.101555L4.33509 11.2484L6.27077 11.7516L9.22077 0.401552L7.28509 -0.101555ZM13.4029 10.5H8.30293V12.5H13.4029V10.5ZM9.22395 11.8895L14.024 0.539507L12.1819 -0.23951L7.38191 11.1105L9.22395 11.8895ZM13.1029 1.15H16.3529V-0.850002H13.1029V1.15ZM15.3851 -0.101555L12.4351 11.2484L14.3708 11.7516L17.3208 0.401552L15.3851 -0.101555Z" fill="black" mask="url(#path-1-outside-1_338_79)"/>
</g>
</svg>
