<svg width="33" height="27" viewBox="0 0 33 27" fill="none" xmlns="http://www.w3.org/2000/svg">
<path id="Vector" d="M32.4446 3.18091C31.2523 3.70899 29.97 4.06134 28.6173 4.22806C29.9925 3.41161 31.0505 2.10943 31.547 0.57114C30.2601 1.32541 28.8345 1.87963 27.3179 2.17161C26.1067 0.887448 24.3792 0.0908203 22.4651 0.0908203C18.7883 0.0908203 15.8082 3.04483 15.8082 6.68733C15.8082 7.2028 15.8686 7.70475 15.9821 8.19228C10.4508 7.91472 5.54486 5.28512 2.26282 1.29477C1.68608 2.26983 1.36166 3.41161 1.36166 4.61646C1.36166 6.90632 2.53407 8.92222 4.32198 10.11C3.23067 10.0766 2.20334 9.77291 1.30398 9.28629C1.30398 9.30611 1.30398 9.33585 1.30398 9.36379C1.30398 12.5638 3.59924 15.2286 6.64157 15.835C6.08555 15.9873 5.49799 16.072 4.89241 16.072C4.46256 16.072 4.04352 16.0234 3.63799 15.9504C4.48509 18.5656 6.94256 20.4769 9.85422 20.5337C7.57608 22.3 4.70677 23.3579 1.58695 23.3579C1.04805 23.3579 0.520872 23.3273 0 23.2642C2.9477 25.1305 6.44782 26.2245 10.2048 26.2245C22.4471 26.2245 29.1445 16.1712 29.1445 7.44972C29.1445 7.16405 29.1355 6.87928 29.122 6.59812C30.4287 5.67533 31.5551 4.51102 32.4446 3.18091Z" fill="white"/>
</svg>
