<svg width="30" height="30" viewBox="0 0 30 30" fill="none" xmlns="http://www.w3.org/2000/svg">
<g id="icons8-twitter 1">
<path id="Vector" d="M25.7896 8.02393C24.9948 8.37598 24.1399 8.61088 23.2381 8.72203C24.1549 8.17772 24.8602 7.3096 25.1913 6.28408C24.3333 6.78693 23.3829 7.15641 22.3718 7.35106C21.5644 6.49495 20.4127 5.96387 19.1366 5.96387C16.6855 5.96387 14.6987 7.93321 14.6987 10.3615C14.6987 10.7052 14.739 11.0398 14.8147 11.3648C11.1271 11.1798 7.85648 9.42674 5.66846 6.7665C5.28396 7.41654 5.06768 8.17772 5.06768 8.98096C5.06768 10.5075 5.84929 11.8515 7.04123 12.6433C6.31369 12.6211 5.62881 12.4186 5.02923 12.0942C5.02923 12.1074 5.02923 12.1272 5.02923 12.1458C5.02923 14.2792 6.55941 16.0557 8.58763 16.46C8.21695 16.5615 7.82524 16.618 7.42152 16.618C7.13495 16.618 6.85559 16.5856 6.58524 16.5369C7.14997 18.2804 8.78828 19.5546 10.7294 19.5925C9.21063 20.77 7.29776 21.4753 5.21788 21.4753C4.85861 21.4753 4.50716 21.4549 4.15991 21.4128C6.12505 22.657 8.45846 23.3864 10.9631 23.3864C19.1246 23.3864 23.5896 16.6841 23.5896 10.8698C23.5896 10.6794 23.5836 10.4895 23.5746 10.3021C24.4457 9.68687 25.1967 8.91067 25.7896 8.02393Z" fill="#03A9F4"/>
</g>
</svg>
